<svg xmlns:xlink="http://www.w3.org/1999/xlink" width="64px" height="64px" viewBox="0 0 288 280.395536" xmlns="http://www.w3.org/2000/svg" version="1.1">
 <metadata>
  <rdf:RDF xmlns:dc="http://purl.org/dc/elements/1.1/" xmlns:cc="http://creativecommons.org/ns#" xmlns:rdf="http://www.w3.org/1999/02/22-rdf-syntax-ns#">
   <cc:Work>
    <dc:type rdf:resource="http://purl.org/dc/dcmitype/StillImage"/>
    <dc:date>2025-06-04T03:33:35.367285</dc:date>
    <dc:format>image/svg+xml</dc:format>
    <dc:creator>
     <cc:Agent>
      <dc:title>Matplotlib v3.5.3, https://matplotlib.org/</dc:title>
     </cc:Agent>
    </dc:creator>
   </cc:Work>
  </rdf:RDF>
 </metadata>
 <defs>
  <style type="text/css">*{stroke-linejoin: round; stroke-linecap: butt}</style>
 </defs>
 <g id="figure_1">
  <g id="patch_1">
   <path d="M 0 280.395536 
L 288 280.395536 
L 288 0 
L 0 0 
L 0 280.395536 
z
" style="fill: none"/>
  </g>
  <g id="axes_1">
   <g id="patch_2">
    <path d="M 144 86.841327 
C 154.363765 86.841327 164.304453 82.72376 171.632741 75.395471 
C 178.96103 68.067183 183.078597 58.126495 183.078597 47.76273 
C 183.078597 37.398965 178.96103 27.458278 171.632741 20.129989 
C 164.304453 12.8017 154.363765 8.684133 144 8.684133 
C 133.636235 8.684133 123.695547 12.8017 116.367259 20.129989 
C 109.03897 27.458278 104.921403 37.398965 104.921403 47.76273 
C 104.921403 58.126495 109.03897 68.067183 116.367259 75.395471 
C 123.695547 82.72376 133.636235 86.841327 144 86.841327 
z
" clip-path="url(#p904530cc63)"/>
   </g>
   <g id="patch_3">
    <path d="M 47.76273 271.711403 
C 58.126495 271.711403 68.067183 267.593835 75.395471 260.265547 
C 82.72376 252.937258 86.841327 242.996571 86.841327 232.632806 
C 86.841327 222.26904 82.72376 212.328353 75.395471 205.000064 
C 68.067183 197.671776 58.126495 193.554208 47.76273 193.554208 
C 37.398965 193.554208 27.458278 197.671776 20.129989 205.000064 
C 12.8017 212.328353 8.684133 222.26904 8.684133 232.632806 
C 8.684133 242.996571 12.8017 252.937258 20.129989 260.265547 
C 27.458278 267.593835 37.398965 271.711403 47.76273 271.711403 
z
" clip-path="url(#p904530cc63)"/>
   </g>
   <g id="patch_4">
    <path d="M 240.23727 271.711403 
C 250.601035 271.711403 260.541722 267.593835 267.870011 260.265547 
C 275.1983 252.937258 279.315867 242.996571 279.315867 232.632806 
C 279.315867 222.26904 275.1983 212.328353 267.870011 205.000064 
C 260.541722 197.671776 250.601035 193.554208 240.23727 193.554208 
C 229.873505 193.554208 219.932817 197.671776 212.604529 205.000064 
C 205.27624 212.328353 201.158673 222.26904 201.158673 232.632806 
C 201.158673 242.996571 205.27624 252.937258 212.604529 260.265547 
C 219.932817 267.593835 229.873505 271.711403 240.23727 271.711403 
z
" clip-path="url(#p904530cc63)"/>
   </g>
   <g id="line2d_1">
    <path d="M 144 47.76273 
L 47.76273 232.632806 
" clip-path="url(#p904530cc63)" style="fill: none; stroke: #000000; stroke-width: 8; stroke-linecap: square"/>
   </g>
   <g id="line2d_2">
    <path d="M 144 47.76273 
L 240.23727 232.632806 
" clip-path="url(#p904530cc63)" style="fill: none; stroke: #000000; stroke-width: 8; stroke-linecap: square"/>
   </g>
  </g>
 </g>
 <defs>
  <clipPath id="p904530cc63">
   <rect x="0" y="-0" width="288" height="280.395536"/>
  </clipPath>
 </defs>
</svg>
